# This file uses centimeters as units for non-parametric coordinates.

mtllib NewDoor.mtl
g default
v -1.411029 0.026911 0.104649
v 1.411029 0.026911 0.104649
v -1.411029 5.752724 0.104649
v 1.411029 5.752724 0.104649
v -1.411029 5.752724 -0.104649
v 1.411029 5.752724 -0.104649
v -1.411029 0.026911 -0.104649
v 1.411029 0.026911 -0.104649
v -0.639378 5.752724 0.104649
v -0.639378 5.752724 -0.104649
v -0.639378 0.026911 -0.104649
v -0.639378 0.026911 0.104649
v 0.596139 5.752724 -0.104649
v 0.596139 0.026911 -0.104649
v 0.596139 0.026911 0.104649
v 0.596139 5.752724 0.104649
v 0.596139 4.962037 0.104649
v -0.639378 4.962037 0.104649
v -1.411029 4.962037 0.104649
v -1.411029 4.962037 -0.104649
v -0.639378 4.962037 -0.104649
v 0.596139 4.962037 -0.104649
v 1.411029 4.962037 -0.104649
v 1.411029 4.962037 0.104649
v 0.596139 3.718780 0.104649
v -0.639378 3.718780 0.104649
v -1.411029 3.718780 0.104649
v -1.411029 3.718780 -0.104649
v -0.639378 3.718780 -0.104649
v 0.596139 3.718780 -0.104649
v 1.411029 3.718780 -0.104649
v 1.411029 3.718780 0.104649
v -0.639378 3.718780 0.021290
v -0.639378 4.962037 0.021290
v 0.596139 3.718780 0.021290
v 0.596139 4.962037 0.021290
v -0.639378 3.718780 -0.021290
v 0.596139 3.718780 -0.021290
v -0.639378 4.962037 -0.021290
v 0.596139 4.962037 -0.021290
v -0.639378 2.292442 0.104649
v -1.411029 2.292442 0.104649
v -1.411029 2.292442 -0.104649
v -0.639378 2.292442 -0.104649
v 0.596139 2.292442 -0.104649
v 1.411029 2.292442 -0.104649
v 1.411029 2.292442 0.104649
v 0.596139 2.292442 0.104649
v -0.639378 1.945121 0.104649
v -1.411029 1.945121 0.104649
v -1.411029 1.945121 -0.104649
v -0.639378 1.945121 -0.104649
v 0.596139 1.945121 -0.104649
v 1.411029 1.945121 -0.104649
v 1.411029 1.945121 0.104649
v 0.596139 1.945121 0.104649
v 0.563531 2.260879 0.104649
v -0.606771 2.260879 0.104649
v -0.606771 1.976684 0.104649
v 0.563531 1.976684 0.104649
v 0.596139 2.292442 0.121153
v -0.639378 2.292442 0.121153
v -0.606771 2.260879 0.121153
v 0.563531 2.260879 0.121153
v -0.639378 1.945121 0.121153
v -0.606771 1.976684 0.121153
v 0.596139 1.945121 0.121153
v 0.563531 1.976684 0.121153
vt 0.002496 0.325594
vt 0.322204 0.325594
vt 0.322204 0.432700
vt 0.002496 0.432700
vt 0.322204 0.452093
vt 0.002496 0.452093
vt 0.322204 0.531734
vt 0.002496 0.531734
vt 0.322204 0.601153
vt 0.002496 0.601153
vt 0.322204 0.645302
vt 0.002496 0.645302
vt 0.001943 0.649196
vt 0.321652 0.649196
vt 0.321652 0.756302
vt 0.001943 0.756302
vt 0.321652 0.775695
vt 0.001943 0.775695
vt 0.321652 0.855336
vt 0.001943 0.855336
vt 0.321652 0.924755
vt 0.001943 0.924755
vt 0.321652 0.968904
vt 0.001943 0.968904
vt 0.668262 0.920394
vt 0.598843 0.920394
vt 0.598843 0.793061
vt 0.668262 0.793061
vt 0.523439 0.793061
vt 0.592857 0.793061
vt 0.592857 0.920394
vt 0.523439 0.920394
vt 0.448034 0.793061
vt 0.517453 0.793061
vt 0.517453 0.920394
vt 0.448034 0.920394
vt 0.442049 0.920394
vt 0.372630 0.920394
vt 0.372630 0.793061
vt 0.442049 0.793061
vt 0.366645 0.818271
vt 0.347252 0.818271
vt 0.347252 0.793061
vt 0.366645 0.793061
vt 0.325398 0.972798
vt 0.341267 0.972798
vt 0.341267 0.998008
vt 0.325398 0.998008
vt 0.300020 0.972798
vt 0.319413 0.972798
vt 0.319413 0.998008
vt 0.300020 0.998008
vt 0.294035 0.998008
vt 0.278166 0.998008
vt 0.278166 0.972798
vt 0.294035 0.972798
vt 0.329152 0.321701
vt 0.329152 0.234281
vt 0.648860 0.234281
vt 0.648860 0.321701
vt 0.329152 0.094310
vt 0.648860 0.094310
vt 0.329152 0.001992
vt 0.648860 0.001992
vt 0.328189 0.645303
vt 0.328189 0.557883
vt 0.647898 0.557883
vt 0.647898 0.645303
vt 0.328189 0.417913
vt 0.647898 0.417913
vt 0.328189 0.325595
vt 0.647898 0.325595
vt 0.481253 0.789167
vt 0.481253 0.649197
vt 0.608586 0.649197
vt 0.608586 0.789167
vt 0.743576 0.649197
vt 0.743576 0.789168
vt 0.616244 0.789168
vt 0.616244 0.649197
vt 0.878567 0.649197
vt 0.878567 0.789168
vt 0.751234 0.789168
vt 0.751234 0.649197
vt 0.846258 0.933032
vt 0.846258 0.793062
vt 0.973591 0.793062
vt 0.973591 0.933032
vt 0.814895 0.793062
vt 0.814895 0.933032
vt 0.789685 0.933032
vt 0.789685 0.793062
vt 0.705442 0.925644
vt 0.705442 0.793061
vt 0.730651 0.793061
vt 0.730651 0.925644
vt 0.758490 0.933032
vt 0.758490 0.793061
vt 0.783700 0.793061
vt 0.783700 0.933032
vt 0.699457 0.793061
vt 0.699457 0.925644
vt 0.674247 0.925644
vt 0.674247 0.793061
vt 0.001943 0.001992
vt 0.089363 0.001992
vt 0.089363 0.109098
vt 0.001943 0.109098
vt 0.229333 0.109098
vt 0.229333 0.001992
vt 0.089363 0.128491
vt 0.001943 0.128491
vt 0.321652 0.109098
vt 0.321652 0.001992
vt 0.089363 0.208132
vt 0.001943 0.208132
vt 0.321652 0.128491
vt 0.229333 0.128491
vt 0.229333 0.208132
vt 0.089363 0.277551
vt 0.001943 0.277551
vt 0.321652 0.208132
vt 0.089363 0.321700
vt 0.001943 0.321700
vt 0.321652 0.277551
vt 0.229333 0.277551
vt 0.229333 0.321700
vt 0.321652 0.321700
vt 0.653883 0.538197
vt 0.741302 0.538197
vt 0.741302 0.645303
vt 0.653883 0.645303
vt 0.653883 0.518804
vt 0.741302 0.518804
vt 0.881273 0.538197
vt 0.881273 0.645303
vt 0.653883 0.439163
vt 0.741302 0.439163
vt 0.881273 0.518804
vt 0.973591 0.538197
vt 0.973591 0.645303
vt 0.653883 0.369744
vt 0.741302 0.369744
vt 0.881273 0.439163
vt 0.973591 0.518804
vt 0.653883 0.325595
vt 0.741302 0.325595
vt 0.973591 0.439163
vt 0.881273 0.369744
vt 0.881273 0.325595
vt 0.973591 0.369744
vt 0.973591 0.325595
vt 0.828893 0.274655
vt 0.703003 0.274655
vt 0.703003 0.020820
vt 0.828893 0.020820
vt 0.966811 0.020820
vt 0.966811 0.274655
vt 0.840920 0.274655
vt 0.840920 0.020820
vt 0.752505 0.793061
vt 0.752505 0.925644
vt 0.736637 0.925644
vt 0.736637 0.793061
vt 0.840273 0.793061
vt 0.840273 0.933032
vt 0.838511 0.929338
vt 0.838511 0.796756
vt 0.820880 0.933032
vt 0.822642 0.929338
vt 0.820880 0.793061
vt 0.822642 0.796756
vn 0.000000 0.000000 1.000000
vn 0.000000 0.000000 1.000000
vn 0.000000 0.000000 1.000000
vn 0.000000 0.000000 1.000000
vn 0.000000 1.000000 0.000000
vn 0.000000 1.000000 0.000000
vn 0.000000 1.000000 0.000000
vn 0.000000 1.000000 0.000000
vn 0.000000 0.000000 -1.000000
vn 0.000000 0.000000 -1.000000
vn 0.000000 0.000000 -1.000000
vn 0.000000 0.000000 -1.000000
vn 0.000000 -1.000000 0.000000
vn 0.000000 -1.000000 0.000000
vn 0.000000 -1.000000 0.000000
vn 0.000000 -1.000000 0.000000
vn 1.000000 0.000000 0.000000
vn 1.000000 0.000000 0.000000
vn 1.000000 0.000000 0.000000
vn 1.000000 0.000000 0.000000
vn -1.000000 0.000000 0.000000
vn -1.000000 0.000000 0.000000
vn -1.000000 0.000000 0.000000
vn -1.000000 0.000000 0.000000
vn 0.000000 1.000000 0.000000
vn 0.000000 1.000000 0.000000
vn 0.000000 0.000000 -1.000000
vn 0.000000 0.000000 -1.000000
vn 0.000000 -1.000000 0.000000
vn 0.000000 -1.000000 0.000000
vn 0.000000 0.000000 1.000000
vn 0.000000 0.000000 1.000000
vn 0.000000 0.000000 -1.000000
vn 0.000000 0.000000 -1.000000
vn 0.000000 -1.000000 0.000000
vn 0.000000 -1.000000 0.000000
vn 0.000000 0.000000 1.000000
vn 0.000000 0.000000 1.000000
vn 0.000000 1.000000 0.000000
vn 0.000000 1.000000 0.000000
vn 0.000000 0.000000 1.000000
vn 0.000000 0.000000 1.000000
vn 0.000000 0.000000 1.000000
vn 0.000000 0.000000 1.000000
vn 0.000000 0.000000 1.000000
vn 0.000000 0.000000 1.000000
vn -1.000000 0.000000 0.000000
vn -1.000000 0.000000 0.000000
vn -1.000000 0.000000 0.000000
vn -1.000000 0.000000 0.000000
vn 0.000000 0.000000 -1.000000
vn 0.000000 0.000000 -1.000000
vn 0.000000 0.000000 -1.000000
vn 0.000000 0.000000 -1.000000
vn 0.000000 0.000000 -1.000000
vn 0.000000 0.000000 -1.000000
vn 0.000000 0.000000 -1.000000
vn 0.000000 0.000000 -1.000000
vn 1.000000 0.000000 0.000000
vn 1.000000 0.000000 0.000000
vn 1.000000 0.000000 0.000000
vn 1.000000 0.000000 0.000000
vn 0.000000 0.000000 1.000000
vn 0.000000 0.000000 1.000000
vn 0.000000 0.000000 1.000000
vn 0.000000 0.000000 1.000000
vn 0.000000 0.000000 1.000000
vn 0.000000 0.000000 1.000000
vn 0.000000 0.000000 1.000000
vn 0.000000 0.000000 1.000000
vn -1.000000 0.000000 0.000000
vn -1.000000 0.000000 0.000000
vn 0.000000 0.000000 -1.000000
vn 0.000000 0.000000 -1.000000
vn 0.000000 0.000000 -1.000000
vn 0.000000 0.000000 -1.000000
vn 0.000000 0.000000 -1.000000
vn 0.000000 0.000000 -1.000000
vn 0.000000 0.000000 -1.000000
vn 0.000000 0.000000 -1.000000
vn 1.000000 0.000000 0.000000
vn 1.000000 0.000000 0.000000
vn 0.000000 0.000000 1.000000
vn 0.000000 0.000000 1.000000
vn 1.000000 0.000000 0.000000
vn 1.000000 0.000000 0.000000
vn 1.000000 0.000000 0.000000
vn 1.000000 0.000000 0.000000
vn 0.000000 1.000000 0.000000
vn 0.000000 1.000000 0.000000
vn 0.000000 1.000000 0.000000
vn 0.000000 1.000000 0.000000
vn -1.000000 0.000000 0.000000
vn -1.000000 0.000000 0.000000
vn -1.000000 0.000000 0.000000
vn -1.000000 0.000000 0.000000
vn 0.000000 -1.000000 0.000000
vn 0.000000 -1.000000 0.000000
vn 0.000000 -1.000000 0.000000
vn 0.000000 -1.000000 0.000000
vn 0.000000 1.000000 0.000000
vn 0.000000 1.000000 0.000000
vn 0.000000 1.000000 0.000000
vn 0.000000 1.000000 0.000000
vn 1.000000 0.000000 0.000000
vn 1.000000 0.000000 0.000000
vn 1.000000 0.000000 0.000000
vn 1.000000 0.000000 0.000000
vn 0.000000 -1.000000 0.000000
vn 0.000000 -1.000000 0.000000
vn 0.000000 -1.000000 0.000000
vn 0.000000 -1.000000 0.000000
vn -1.000000 0.000000 0.000000
vn -1.000000 0.000000 0.000000
vn -1.000000 0.000000 0.000000
vn -1.000000 0.000000 0.000000
vn 0.000000 0.000000 1.000000
vn 0.000000 0.000000 1.000000
vn -1.000000 0.000000 0.000000
vn -1.000000 0.000000 0.000000
vn 0.000000 0.000000 -1.000000
vn 0.000000 0.000000 -1.000000
vn 0.000000 0.000000 -1.000000
vn 0.000000 0.000000 -1.000000
vn 1.000000 0.000000 0.000000
vn 1.000000 0.000000 0.000000
vn 0.000000 0.000000 1.000000
vn 0.000000 0.000000 1.000000
vn 0.000000 0.000000 1.000000
vn 0.000000 0.000000 1.000000
vn 0.000000 0.000000 1.000000
vn 0.000000 0.000000 1.000000
vn 0.000000 0.000000 1.000000
vn 0.000000 0.000000 1.000000
vn 0.000000 0.000000 1.000000
vn 0.000000 0.000000 1.000000
vn 0.000000 0.000000 1.000000
vn 0.000000 0.000000 1.000000
vn 0.000000 0.000000 1.000000
vn 0.000000 0.000000 1.000000
vn 0.000000 0.000000 1.000000
vn 0.000000 0.000000 1.000000
vn 0.000000 0.000000 1.000000
vn 0.000000 0.000000 1.000000
vn -0.000000 0.000000 1.000000
vn -0.000000 0.000000 1.000000
vn -0.000000 0.000000 1.000000
vn -0.000000 0.000000 1.000000
vn 0.000000 1.000000 0.000000
vn 0.000000 1.000000 0.000000
vn 0.000000 1.000000 0.000000
vn 0.000000 1.000000 0.000000
vn 0.000000 -1.000000 0.000000
vn 0.000000 -1.000000 0.000000
vn 0.000000 -1.000000 0.000000
vn 0.000000 -1.000000 0.000000
vn -1.000000 0.000000 0.000000
vn -1.000000 0.000000 0.000000
vn -1.000000 0.000000 0.000000
vn -1.000000 0.000000 0.000000
vn 1.000000 0.000000 0.000000
vn 1.000000 0.000000 0.000000
vn 1.000000 0.000000 0.000000
vn 1.000000 0.000000 0.000000
vn 0.000000 -1.000000 0.000000
vn 0.000000 -1.000000 0.000000
vn 0.000000 -1.000000 0.000000
vn 0.000000 -1.000000 0.000000
vn 0.000000 1.000000 0.000000
vn 0.000000 1.000000 0.000000
vn 0.000000 1.000000 0.000000
vn 0.000000 1.000000 0.000000
vn 1.000000 0.000000 0.000000
vn 1.000000 0.000000 0.000000
vn 1.000000 0.000000 0.000000
vn 1.000000 0.000000 0.000000
vn -1.000000 0.000000 0.000000
vn -1.000000 0.000000 0.000000
vn -1.000000 0.000000 0.000000
vn -1.000000 0.000000 0.000000
s 1
g pCube1
usemtl initialShadingGroup
f 1/105/1 12/106/2 49/107/3 50/108/4
s 2
f 3/57/5 9/58/6 10/59/7 5/60/8
s 3
f 51/129/9 52/130/10 11/131/11 7/132/12
s 4
f 7/65/13 11/66/14 12/67/15 1/68/16
s 5
f 2/1/17 8/2/18 54/3/19 55/4/20
s 6
f 7/13/21 1/14/22 50/15/23 51/16/24
s 2
f 9/58/6 16/61/25 13/62/26 10/59/7
s 3
f 11/131/11 52/130/10 53/135/27 14/136/28
s 4
f 12/67/15 11/66/14 14/69/29 15/70/30
s 1
f 56/109/31 49/107/3 12/106/2 15/110/32
s 3
f 14/136/28 53/135/27 54/140/33 8/141/34
s 4
f 15/70/30 14/69/29 8/71/35 2/72/36
s 1
f 55/113/37 56/109/31 15/110/32 2/114/38
s 2
f 13/62/26 16/61/25 4/63/39 6/64/40
s 1
f 9/123/41 18/120/42 17/126/43 16/127/44
f 19/121/45 18/120/42 9/123/41 3/124/46
s 6
f 20/22/47 19/21/48 3/23/49 5/24/50
s 3
f 5/146/51 10/147/52 21/143/53 20/142/54
f 22/149/55 21/143/53 10/147/52 13/150/56
f 23/151/57 22/149/55 13/150/56 6/152/58
s 5
f 24/10/59 23/9/60 6/11/61 4/12/62
s 1
f 16/127/44 17/126/43 24/125/63 4/128/64
s off
f 34/153/65 33/154/66 35/155/67 36/156/68
s 1
f 27/116/69 26/115/70 18/120/42 19/121/45
s 6
f 28/20/71 27/19/72 19/21/48 20/22/47
s 3
f 20/142/54 21/143/53 29/138/73 28/137/74
s off
f 38/157/75 37/158/76 39/159/77 40/160/78
s 3
f 31/148/79 30/144/80 22/149/55 23/151/57
s 5
f 32/8/81 31/7/82 23/9/60 24/10/59
s 1
f 24/125/63 17/126/43 25/119/83 32/122/84
s off
f 18/25/85 26/26/86 33/27/87 34/28/88
f 26/73/89 25/74/90 35/75/91 33/76/92
f 25/29/93 17/30/94 36/31/95 35/32/96
f 17/77/97 18/78/98 34/79/99 36/80/100
f 30/81/101 29/82/102 37/83/103 38/84/104
f 29/33/105 21/34/106 39/35/107 37/36/108
f 21/85/109 22/86/110 40/87/111 39/88/112
f 22/37/113 30/38/114 38/39/115 40/40/116
s 1
f 42/112/117 41/111/118 26/115/70 27/116/69
s 6
f 43/18/119 42/17/120 27/19/72 28/20/71
s 3
f 28/137/74 29/138/73 44/134/121 43/133/122
f 45/139/123 44/134/121 29/138/73 30/144/80
f 46/145/124 45/139/123 30/144/80 31/148/79
s 5
f 47/6/125 46/5/126 31/7/82 32/8/81
s 1
f 32/122/84 25/119/83 48/118/127 47/117/128
f 26/115/70 41/111/118 48/118/127 25/119/83
f 50/108/4 49/107/3 41/111/118 42/112/117
s 6
f 51/16/24 50/15/23 42/17/120 43/18/119
s 3
f 43/133/122 44/134/121 52/130/10 51/129/9
f 53/135/27 52/130/10 44/134/121 45/139/123
f 54/140/33 53/135/27 45/139/123 46/145/124
s 5
f 55/4/20 54/3/19 46/5/126 47/6/125
s 1
f 47/117/128 48/118/127 56/109/31 55/113/37
s off
f 57/161/129 58/162/130 59/163/131 60/164/132
f 61/165/133 62/166/134 63/167/135 64/168/136
f 62/166/137 65/169/138 66/170/139 63/167/140
f 65/169/141 67/171/142 68/172/143 66/170/144
f 67/171/145 61/165/146 64/168/147 68/172/148
f 48/89/149 41/90/150 62/91/151 61/92/152
f 58/93/153 57/94/154 64/95/155 63/96/156
f 41/41/157 49/42/158 65/43/159 62/44/160
f 59/45/161 58/46/162 63/47/163 66/48/164
f 49/97/165 56/98/166 67/99/167 65/100/168
f 60/101/169 59/102/170 66/103/171 68/104/172
f 56/49/173 48/50/174 61/51/175 67/52/176
f 57/53/177 60/54/178 68/55/179 64/56/180
